<svg width="352" height="60" viewBox="0 0 352 60" fill="none" xmlns="http://www.w3.org/2000/svg">
<path d="M57.6 0H2.4C1.0725 0 0 1.0725 0 2.4V57.6C0 58.9275 1.0725 60 2.4 60H57.6C58.9275 60 60 58.9275 60 57.6V2.4C60 1.0725 58.9275 0 57.6 0ZM30.0825 30.4575L15.6825 42.5325C15.2925 42.8625 14.7 42.585 14.7 42.075V37.3725C14.7 37.2 14.7825 37.0275 14.9175 36.915L23.1525 30L14.9175 23.085C14.8486 23.0306 14.7931 22.961 14.7554 22.8816C14.7177 22.8023 14.6987 22.7153 14.7 22.6275V17.925C14.7 17.415 15.2925 17.1375 15.6825 17.4675L30.0825 29.535C30.375 29.775 30.375 30.2175 30.0825 30.4575ZM45.3 42.075C45.3 42.405 45.045 42.675 44.7375 42.675H30.8625C30.555 42.675 30.3 42.405 30.3 42.075V38.475C30.3 38.145 30.555 37.875 30.8625 37.875H44.7375C45.045 37.875 45.3 38.145 45.3 38.475V42.075Z" fill="#FBB632"/>
<path d="M96.5557 45.55C94.4223 45.55 92.439 45.0167 90.6057 43.95C88.7723 42.8833 87.3223 41.45 86.2557 39.65C85.189 37.8167 84.6557 35.85 84.6557 33.75C84.6557 31.65 85.189 29.7 86.2557 27.9C87.3223 26.0667 88.7723 24.6167 90.6057 23.55C92.439 22.4833 94.4223 21.95 96.5557 21.95C98.7223 21.95 100.772 22.5333 102.706 23.7C104.639 24.8333 105.989 26.3167 106.756 28.15V22.5H108.356V45H106.756V39.4C105.856 41.2667 104.456 42.7667 102.556 43.9C100.689 45 98.689 45.55 96.5557 45.55ZM96.6557 44.15C98.489 44.15 100.189 43.6833 101.756 42.75C103.322 41.7833 104.556 40.5167 105.456 38.95C106.389 37.35 106.856 35.6167 106.856 33.75C106.856 31.9167 106.389 30.2 105.456 28.6C104.522 27 103.272 25.7333 101.706 24.8C100.139 23.8333 98.439 23.35 96.6057 23.35C94.7723 23.35 93.0557 23.8333 91.4557 24.8C89.889 25.7667 88.6223 27.05 87.6557 28.65C86.7223 30.25 86.2557 31.9667 86.2557 33.8C86.2557 35.6333 86.7223 37.35 87.6557 38.95C88.6223 40.5167 89.9057 41.7833 91.5057 42.75C93.1057 43.6833 94.8223 44.15 96.6557 44.15ZM117.167 7.5H118.767V27.15C119.467 25.65 120.65 24.4167 122.317 23.45C124.017 22.45 125.733 21.95 127.467 21.95C130.633 21.95 133.067 22.8167 134.767 24.55C136.5 26.2833 137.367 28.7333 137.367 31.9V45H135.767V31.9C135.767 29.1667 135.033 27.0667 133.567 25.6C132.133 24.1 130.1 23.35 127.467 23.35C125.867 23.35 124.4 23.7333 123.067 24.5C121.733 25.2333 120.683 26.2667 119.917 27.6C119.15 28.9 118.767 30.3333 118.767 31.9V45H117.167V7.5ZM146.18 22.5H147.78V25.9C149.314 23.2667 151.78 21.95 155.18 21.95C156.814 21.95 158.23 22.4167 159.43 23.35C160.63 24.25 161.464 25.6167 161.93 27.45C162.364 25.8167 163.314 24.5 164.78 23.5C166.28 22.4667 167.964 21.95 169.83 21.95C172.264 21.95 174.147 22.6667 175.48 24.1C176.814 25.5 177.48 27.5 177.48 30.1V45H175.88V30.1C175.88 28 175.33 26.35 174.23 25.15C173.164 23.95 171.747 23.35 169.98 23.35C168.647 23.35 167.414 23.6833 166.28 24.35C165.147 24.9833 164.247 25.85 163.58 26.95C162.914 28.05 162.58 29.2667 162.58 30.6V45H160.98V31C160.98 28.6 160.414 26.7333 159.28 25.4C158.147 24.0333 156.68 23.35 154.88 23.35C153.68 23.35 152.53 23.65 151.43 24.25C150.364 24.85 149.48 25.6667 148.78 26.7C148.114 27.7 147.78 28.8 147.78 30V45H146.18V22.5ZM197.228 44.2C198.961 44.2 200.611 43.75 202.178 42.85C203.745 41.95 205.045 40.7167 206.078 39.15V41.7C204.845 43.0667 203.495 44.0667 202.028 44.7C200.561 45.3 198.895 45.6 197.028 45.6C194.961 45.6 193.011 45.05 191.178 43.95C189.378 42.85 187.928 41.3833 186.828 39.55C185.761 37.7167 185.228 35.7667 185.228 33.7C185.228 31.4667 185.761 29.4667 186.828 27.7C187.895 25.9 189.345 24.5 191.178 23.5C193.045 22.5 195.111 22 197.378 22C200.845 22 203.795 23.3667 206.228 26.1L190.528 41.6C191.628 42.5 192.695 43.1667 193.728 43.6C194.761 44 195.928 44.2 197.228 44.2ZM186.828 33.55C186.828 36.3167 187.745 38.6833 189.578 40.65L204.228 26.1C203.128 25.1333 202.061 24.45 201.028 24.05C199.995 23.6167 198.761 23.4 197.328 23.4C195.295 23.4 193.478 23.85 191.878 24.75C190.311 25.6167 189.078 26.8167 188.178 28.35C187.278 29.8833 186.828 31.6167 186.828 33.55ZM221.779 45.3C219.312 45.3 217.262 44.55 215.629 43.05C214.029 41.55 213.229 39.4833 213.229 36.85V13.45H214.829V22.5H221.729V23.9H214.829V36.85C214.829 39.05 215.479 40.7833 216.779 42.05C218.112 43.2833 219.779 43.9 221.779 43.9V45.3Z" fill="#E5E5E5"/>
<path d="M239.085 45.55C236.952 45.55 234.968 45.0167 233.135 43.95C231.302 42.8833 229.852 41.45 228.785 39.65C227.718 37.8167 227.185 35.85 227.185 33.75C227.185 31.65 227.718 29.7 228.785 27.9C229.852 26.0667 231.302 24.6167 233.135 23.55C234.968 22.4833 236.952 21.95 239.085 21.95C241.252 21.95 243.302 22.5333 245.235 23.7C247.168 24.8333 248.518 26.3167 249.285 28.15V22.5H250.885V45H249.285V39.4C248.385 41.2667 246.985 42.7667 245.085 43.9C243.218 45 241.218 45.55 239.085 45.55ZM239.185 44.15C241.018 44.15 242.718 43.6833 244.285 42.75C245.852 41.7833 247.085 40.5167 247.985 38.95C248.918 37.35 249.385 35.6167 249.385 33.75C249.385 31.9167 248.918 30.2 247.985 28.6C247.052 27 245.802 25.7333 244.235 24.8C242.668 23.8333 240.968 23.35 239.135 23.35C237.302 23.35 235.585 23.8333 233.985 24.8C232.418 25.7667 231.152 27.05 230.185 28.65C229.252 30.25 228.785 31.9667 228.785 33.8C228.785 35.6333 229.252 37.35 230.185 38.95C231.152 40.5167 232.435 41.7833 234.035 42.75C235.635 43.6833 237.352 44.15 239.185 44.15ZM259.696 7.6H261.296V30.3L270.196 22.5H272.246L261.946 31.5L274.846 45H272.696L261.296 33V45H259.696V7.6ZM289.045 45.3C286.578 45.3 284.528 44.55 282.895 43.05C281.295 41.55 280.495 39.4833 280.495 36.85V13.45H282.095V22.5H288.995V23.9H282.095V36.85C282.095 39.05 282.745 40.7833 284.045 42.05C285.378 43.2833 287.045 43.9 289.045 43.9V45.3ZM306.351 45.55C304.217 45.55 302.234 45.0167 300.401 43.95C298.567 42.8833 297.117 41.45 296.051 39.65C294.984 37.8167 294.451 35.85 294.451 33.75C294.451 31.65 294.984 29.7 296.051 27.9C297.117 26.0667 298.567 24.6167 300.401 23.55C302.234 22.4833 304.217 21.95 306.351 21.95C308.517 21.95 310.567 22.5333 312.501 23.7C314.434 24.8333 315.784 26.3167 316.551 28.15V22.5H318.151V45H316.551V39.4C315.651 41.2667 314.251 42.7667 312.351 43.9C310.484 45 308.484 45.55 306.351 45.55ZM306.451 44.15C308.284 44.15 309.984 43.6833 311.551 42.75C313.117 41.7833 314.351 40.5167 315.251 38.95C316.184 37.35 316.651 35.6167 316.651 33.75C316.651 31.9167 316.184 30.2 315.251 28.6C314.317 27 313.067 25.7333 311.501 24.8C309.934 23.8333 308.234 23.35 306.401 23.35C304.567 23.35 302.851 23.8333 301.251 24.8C299.684 25.7667 298.417 27.05 297.451 28.65C296.517 30.25 296.051 31.9667 296.051 33.8C296.051 35.6333 296.517 37.35 297.451 38.95C298.417 40.5167 299.701 41.7833 301.301 42.75C302.901 43.6833 304.617 44.15 306.451 44.15ZM339.362 38.7C339.362 40.6 338.778 42.1667 337.612 43.4C336.445 44.6333 334.995 45.3333 333.262 45.5V46.95H333.412C335.812 46.95 337.012 47.9667 337.012 50C337.045 51.1333 336.728 52.0167 336.062 52.65C335.428 53.2833 334.562 53.6 333.462 53.6H331.662V52.2H333.462C334.095 52.2 334.578 52.0167 334.912 51.65C335.278 51.2833 335.462 50.8 335.462 50.2C335.462 49 334.795 48.4 333.462 48.4H331.712L331.662 45.55C330.228 45.45 328.962 45.1333 327.862 44.6C326.795 44.0667 326.012 43.4 325.512 42.6V39.95C326.145 41.3833 327.012 42.45 328.112 43.15C329.212 43.8167 330.612 44.15 332.312 44.15C333.945 44.15 335.262 43.65 336.262 42.65C337.262 41.6167 337.762 40.3 337.762 38.7C337.762 37.3333 337.478 36.2833 336.912 35.55C336.345 34.7833 335.428 34.0167 334.162 33.25L332.262 32.15C330.895 31.3167 329.862 30.6667 329.162 30.2C328.495 29.7 327.962 29.15 327.562 28.55C327.162 27.9167 326.962 27.1833 326.962 26.35C326.962 25.0167 327.428 23.95 328.362 23.15C329.295 22.35 330.512 21.95 332.012 21.95C333.845 21.95 335.378 22.3667 336.612 23.2V25.4C335.578 24.0333 334.095 23.35 332.162 23.35C331.095 23.35 330.228 23.6167 329.562 24.15C328.895 24.6833 328.562 25.3667 328.562 26.2C328.562 26.9333 328.762 27.5833 329.162 28.15C329.562 28.6833 330.112 29.1833 330.812 29.65C331.545 30.1167 332.745 30.8167 334.412 31.75C336.112 32.7167 337.362 33.7167 338.162 34.75C338.962 35.75 339.362 37.0667 339.362 38.7Z" fill="#FBB632"/>
<line x1="72" y1="57.5" x2="352" y2="58.5" stroke="#FBB632" stroke-width="5"/>
</svg>
